<mxfile host="app.diagrams.net" agent="Mozilla/5.0 (Windows NT 10.0; Win64; x64) AppleWebKit/537.36 (KHTML, like Gecko) Chrome/138.0.0.0 Safari/537.36" version="28.0.6">
  <diagram name="Page-1" id="2S0_FU1uzKoscpLqlr7T">
    <mxGraphModel dx="872" dy="634" grid="1" gridSize="10" guides="1" tooltips="1" connect="1" arrows="1" fold="1" page="1" pageScale="1" pageWidth="827" pageHeight="1169" math="0" shadow="0">
      <root>
        <mxCell id="0" />
        <mxCell id="1" parent="0" />
        <mxCell id="t2IdmBUL7NWsffpxNlj8-3" value="" style="edgeStyle=orthogonalEdgeStyle;rounded=0;orthogonalLoop=1;jettySize=auto;html=1;" edge="1" parent="1" source="t2IdmBUL7NWsffpxNlj8-1" target="t2IdmBUL7NWsffpxNlj8-2">
          <mxGeometry relative="1" as="geometry" />
        </mxCell>
        <mxCell id="t2IdmBUL7NWsffpxNlj8-1" value="" style="shape=waypoint;sketch=0;fillStyle=solid;size=6;pointerEvents=1;points=[];fillColor=none;resizable=0;rotatable=0;perimeter=centerPerimeter;snapToPoint=1;" vertex="1" parent="1">
          <mxGeometry x="407" y="30" width="20" height="20" as="geometry" />
        </mxCell>
        <mxCell id="t2IdmBUL7NWsffpxNlj8-5" value="" style="edgeStyle=orthogonalEdgeStyle;rounded=0;orthogonalLoop=1;jettySize=auto;html=1;" edge="1" parent="1" source="t2IdmBUL7NWsffpxNlj8-2" target="t2IdmBUL7NWsffpxNlj8-4">
          <mxGeometry relative="1" as="geometry" />
        </mxCell>
        <mxCell id="t2IdmBUL7NWsffpxNlj8-2" value="Show Main Menu" style="whiteSpace=wrap;html=1;fillColor=none;sketch=0;fillStyle=solid;pointerEvents=1;resizable=0;" vertex="1" parent="1">
          <mxGeometry x="357" y="90" width="120" height="60" as="geometry" />
        </mxCell>
        <mxCell id="t2IdmBUL7NWsffpxNlj8-7" value="" style="edgeStyle=orthogonalEdgeStyle;rounded=0;orthogonalLoop=1;jettySize=auto;html=1;" edge="1" parent="1" source="t2IdmBUL7NWsffpxNlj8-4" target="t2IdmBUL7NWsffpxNlj8-6">
          <mxGeometry relative="1" as="geometry" />
        </mxCell>
        <mxCell id="t2IdmBUL7NWsffpxNlj8-9" value="" style="edgeStyle=orthogonalEdgeStyle;rounded=0;orthogonalLoop=1;jettySize=auto;html=1;" edge="1" parent="1" source="t2IdmBUL7NWsffpxNlj8-4" target="t2IdmBUL7NWsffpxNlj8-8">
          <mxGeometry relative="1" as="geometry" />
        </mxCell>
        <mxCell id="t2IdmBUL7NWsffpxNlj8-4" value="User Choice" style="whiteSpace=wrap;html=1;fillColor=none;sketch=0;fillStyle=solid;pointerEvents=1;resizable=0;" vertex="1" parent="1">
          <mxGeometry x="191" y="140" width="120" height="60" as="geometry" />
        </mxCell>
        <mxCell id="t2IdmBUL7NWsffpxNlj8-6" value="decrypt file" style="whiteSpace=wrap;html=1;fillColor=none;sketch=0;fillStyle=solid;pointerEvents=1;resizable=0;" vertex="1" parent="1">
          <mxGeometry x="191" y="280" width="120" height="60" as="geometry" />
        </mxCell>
        <mxCell id="t2IdmBUL7NWsffpxNlj8-18" value="" style="edgeStyle=orthogonalEdgeStyle;rounded=0;orthogonalLoop=1;jettySize=auto;html=1;" edge="1" parent="1" source="t2IdmBUL7NWsffpxNlj8-8" target="t2IdmBUL7NWsffpxNlj8-17">
          <mxGeometry relative="1" as="geometry" />
        </mxCell>
        <mxCell id="t2IdmBUL7NWsffpxNlj8-8" value="Encrypt file" style="whiteSpace=wrap;html=1;fillColor=none;sketch=0;fillStyle=solid;pointerEvents=1;resizable=0;" vertex="1" parent="1">
          <mxGeometry x="57" y="280" width="120" height="60" as="geometry" />
        </mxCell>
        <mxCell id="t2IdmBUL7NWsffpxNlj8-10" value="" style="endArrow=classic;html=1;rounded=0;" edge="1" parent="1" target="t2IdmBUL7NWsffpxNlj8-12">
          <mxGeometry width="50" height="50" relative="1" as="geometry">
            <mxPoint x="287" y="200" as="sourcePoint" />
            <mxPoint x="362.63636363636374" y="280" as="targetPoint" />
          </mxGeometry>
        </mxCell>
        <mxCell id="t2IdmBUL7NWsffpxNlj8-21" value="" style="edgeStyle=orthogonalEdgeStyle;rounded=0;orthogonalLoop=1;jettySize=auto;html=1;" edge="1" parent="1" source="t2IdmBUL7NWsffpxNlj8-12" target="t2IdmBUL7NWsffpxNlj8-20">
          <mxGeometry relative="1" as="geometry" />
        </mxCell>
        <mxCell id="t2IdmBUL7NWsffpxNlj8-12" value="show history" style="whiteSpace=wrap;html=1;fillColor=none;sketch=0;fillStyle=solid;pointerEvents=1;resizable=0;" vertex="1" parent="1">
          <mxGeometry x="321" y="280" width="120" height="60" as="geometry" />
        </mxCell>
        <mxCell id="t2IdmBUL7NWsffpxNlj8-16" value="" style="edgeStyle=orthogonalEdgeStyle;rounded=0;orthogonalLoop=1;jettySize=auto;html=1;" edge="1" parent="1" source="t2IdmBUL7NWsffpxNlj8-13" target="t2IdmBUL7NWsffpxNlj8-15">
          <mxGeometry relative="1" as="geometry" />
        </mxCell>
        <mxCell id="t2IdmBUL7NWsffpxNlj8-13" value="Exit" style="whiteSpace=wrap;html=1;fillColor=none;sketch=0;fillStyle=solid;pointerEvents=1;resizable=0;" vertex="1" parent="1">
          <mxGeometry x="450.5" y="280" width="120" height="60" as="geometry" />
        </mxCell>
        <mxCell id="t2IdmBUL7NWsffpxNlj8-14" value="" style="endArrow=classic;html=1;rounded=0;exitX=1;exitY=1;exitDx=0;exitDy=0;" edge="1" parent="1" source="t2IdmBUL7NWsffpxNlj8-4" target="t2IdmBUL7NWsffpxNlj8-13">
          <mxGeometry width="50" height="50" relative="1" as="geometry">
            <mxPoint x="317" y="230" as="sourcePoint" />
            <mxPoint x="437" y="240" as="targetPoint" />
          </mxGeometry>
        </mxCell>
        <mxCell id="t2IdmBUL7NWsffpxNlj8-15" value="" style="shape=waypoint;sketch=0;size=6;pointerEvents=1;points=[];fillColor=none;resizable=0;rotatable=0;perimeter=centerPerimeter;snapToPoint=1;fillStyle=solid;" vertex="1" parent="1">
          <mxGeometry x="500.5" y="400" width="20" height="20" as="geometry" />
        </mxCell>
        <mxCell id="t2IdmBUL7NWsffpxNlj8-26" value="" style="edgeStyle=orthogonalEdgeStyle;rounded=0;orthogonalLoop=1;jettySize=auto;html=1;" edge="1" parent="1" source="t2IdmBUL7NWsffpxNlj8-17" target="t2IdmBUL7NWsffpxNlj8-25">
          <mxGeometry relative="1" as="geometry" />
        </mxCell>
        <mxCell id="t2IdmBUL7NWsffpxNlj8-17" value="Open file dialog" style="whiteSpace=wrap;html=1;fillColor=none;sketch=0;fillStyle=solid;pointerEvents=1;resizable=0;" vertex="1" parent="1">
          <mxGeometry x="57" y="380" width="120" height="60" as="geometry" />
        </mxCell>
        <mxCell id="t2IdmBUL7NWsffpxNlj8-19" style="edgeStyle=orthogonalEdgeStyle;rounded=0;orthogonalLoop=1;jettySize=auto;html=1;entryX=0.883;entryY=-0.033;entryDx=0;entryDy=0;entryPerimeter=0;" edge="1" parent="1" source="t2IdmBUL7NWsffpxNlj8-6" target="t2IdmBUL7NWsffpxNlj8-17">
          <mxGeometry relative="1" as="geometry">
            <Array as="points">
              <mxPoint x="251" y="370" />
              <mxPoint x="153" y="370" />
              <mxPoint x="153" y="380" />
              <mxPoint x="163" y="380" />
            </Array>
          </mxGeometry>
        </mxCell>
        <mxCell id="t2IdmBUL7NWsffpxNlj8-23" value="" style="edgeStyle=orthogonalEdgeStyle;rounded=0;orthogonalLoop=1;jettySize=auto;html=1;" edge="1" parent="1" source="t2IdmBUL7NWsffpxNlj8-20" target="t2IdmBUL7NWsffpxNlj8-22">
          <mxGeometry relative="1" as="geometry" />
        </mxCell>
        <mxCell id="t2IdmBUL7NWsffpxNlj8-20" value="Display History Log" style="whiteSpace=wrap;html=1;fillColor=none;sketch=0;fillStyle=solid;pointerEvents=1;resizable=0;" vertex="1" parent="1">
          <mxGeometry x="321" y="420" width="120" height="60" as="geometry" />
        </mxCell>
        <mxCell id="t2IdmBUL7NWsffpxNlj8-24" style="edgeStyle=orthogonalEdgeStyle;rounded=0;orthogonalLoop=1;jettySize=auto;html=1;entryX=1;entryY=0.5;entryDx=0;entryDy=0;" edge="1" parent="1" source="t2IdmBUL7NWsffpxNlj8-22">
          <mxGeometry relative="1" as="geometry">
            <mxPoint x="377" y="540" as="sourcePoint" />
            <mxPoint x="473" y="100" as="targetPoint" />
            <Array as="points">
              <mxPoint x="381" y="570" />
              <mxPoint x="583" y="570" />
              <mxPoint x="583" y="100" />
            </Array>
          </mxGeometry>
        </mxCell>
        <mxCell id="t2IdmBUL7NWsffpxNlj8-22" value="wait for key press" style="whiteSpace=wrap;html=1;fillColor=none;sketch=0;fillStyle=solid;pointerEvents=1;resizable=0;" vertex="1" parent="1">
          <mxGeometry x="321" y="500" width="120" height="60" as="geometry" />
        </mxCell>
        <mxCell id="t2IdmBUL7NWsffpxNlj8-28" value="" style="edgeStyle=orthogonalEdgeStyle;rounded=0;orthogonalLoop=1;jettySize=auto;html=1;" edge="1" parent="1" source="t2IdmBUL7NWsffpxNlj8-25" target="t2IdmBUL7NWsffpxNlj8-27">
          <mxGeometry relative="1" as="geometry" />
        </mxCell>
        <mxCell id="t2IdmBUL7NWsffpxNlj8-45" style="edgeStyle=orthogonalEdgeStyle;rounded=0;orthogonalLoop=1;jettySize=auto;html=1;entryX=0;entryY=0.5;entryDx=0;entryDy=0;" edge="1" parent="1">
          <mxGeometry relative="1" as="geometry">
            <mxPoint x="67" y="490" as="sourcePoint" />
            <mxPoint x="367" y="120" as="targetPoint" />
            <Array as="points">
              <mxPoint x="47" y="490" />
              <mxPoint x="47" y="120" />
            </Array>
          </mxGeometry>
        </mxCell>
        <mxCell id="t2IdmBUL7NWsffpxNlj8-25" value="file Selection check" style="whiteSpace=wrap;html=1;fillColor=none;sketch=0;fillStyle=solid;pointerEvents=1;resizable=0;" vertex="1" parent="1">
          <mxGeometry x="57" y="460" width="120" height="60" as="geometry" />
        </mxCell>
        <mxCell id="t2IdmBUL7NWsffpxNlj8-30" value="" style="edgeStyle=orthogonalEdgeStyle;rounded=0;orthogonalLoop=1;jettySize=auto;html=1;" edge="1" parent="1" source="t2IdmBUL7NWsffpxNlj8-27" target="t2IdmBUL7NWsffpxNlj8-29">
          <mxGeometry relative="1" as="geometry" />
        </mxCell>
        <mxCell id="t2IdmBUL7NWsffpxNlj8-27" value="show operation choice" style="whiteSpace=wrap;html=1;fillColor=none;sketch=0;fillStyle=solid;pointerEvents=1;resizable=0;" vertex="1" parent="1">
          <mxGeometry x="177" y="560" width="120" height="60" as="geometry" />
        </mxCell>
        <mxCell id="t2IdmBUL7NWsffpxNlj8-32" value="" style="edgeStyle=orthogonalEdgeStyle;rounded=0;orthogonalLoop=1;jettySize=auto;html=1;" edge="1" parent="1" source="t2IdmBUL7NWsffpxNlj8-29" target="t2IdmBUL7NWsffpxNlj8-31">
          <mxGeometry relative="1" as="geometry" />
        </mxCell>
        <mxCell id="t2IdmBUL7NWsffpxNlj8-29" value="set mode" style="whiteSpace=wrap;html=1;fillColor=none;sketch=0;fillStyle=solid;pointerEvents=1;resizable=0;" vertex="1" parent="1">
          <mxGeometry x="177" y="640" width="120" height="60" as="geometry" />
        </mxCell>
        <mxCell id="t2IdmBUL7NWsffpxNlj8-35" value="" style="edgeStyle=orthogonalEdgeStyle;rounded=0;orthogonalLoop=1;jettySize=auto;html=1;" edge="1" parent="1" source="t2IdmBUL7NWsffpxNlj8-31" target="t2IdmBUL7NWsffpxNlj8-34">
          <mxGeometry relative="1" as="geometry" />
        </mxCell>
        <mxCell id="t2IdmBUL7NWsffpxNlj8-31" value="show loading animation" style="whiteSpace=wrap;html=1;fillColor=none;sketch=0;fillStyle=solid;pointerEvents=1;resizable=0;" vertex="1" parent="1">
          <mxGeometry x="177" y="710" width="120" height="60" as="geometry" />
        </mxCell>
        <mxCell id="t2IdmBUL7NWsffpxNlj8-37" value="" style="edgeStyle=orthogonalEdgeStyle;rounded=0;orthogonalLoop=1;jettySize=auto;html=1;" edge="1" parent="1" source="t2IdmBUL7NWsffpxNlj8-34" target="t2IdmBUL7NWsffpxNlj8-36">
          <mxGeometry relative="1" as="geometry" />
        </mxCell>
        <mxCell id="t2IdmBUL7NWsffpxNlj8-34" value="process file" style="whiteSpace=wrap;html=1;fillColor=none;sketch=0;fillStyle=solid;pointerEvents=1;resizable=0;" vertex="1" parent="1">
          <mxGeometry x="177" y="780" width="120" height="60" as="geometry" />
        </mxCell>
        <mxCell id="t2IdmBUL7NWsffpxNlj8-39" value="" style="edgeStyle=orthogonalEdgeStyle;rounded=0;orthogonalLoop=1;jettySize=auto;html=1;" edge="1" parent="1" source="t2IdmBUL7NWsffpxNlj8-36" target="t2IdmBUL7NWsffpxNlj8-38">
          <mxGeometry relative="1" as="geometry" />
        </mxCell>
        <mxCell id="t2IdmBUL7NWsffpxNlj8-53" value="" style="edgeStyle=orthogonalEdgeStyle;rounded=0;orthogonalLoop=1;jettySize=auto;html=1;" edge="1" parent="1" source="t2IdmBUL7NWsffpxNlj8-36" target="t2IdmBUL7NWsffpxNlj8-52">
          <mxGeometry relative="1" as="geometry" />
        </mxCell>
        <mxCell id="t2IdmBUL7NWsffpxNlj8-36" value="check success" style="whiteSpace=wrap;html=1;fillColor=none;sketch=0;fillStyle=solid;pointerEvents=1;resizable=0;" vertex="1" parent="1">
          <mxGeometry x="177" y="860" width="120" height="60" as="geometry" />
        </mxCell>
        <mxCell id="t2IdmBUL7NWsffpxNlj8-41" value="" style="edgeStyle=orthogonalEdgeStyle;rounded=0;orthogonalLoop=1;jettySize=auto;html=1;" edge="1" parent="1" source="t2IdmBUL7NWsffpxNlj8-38" target="t2IdmBUL7NWsffpxNlj8-40">
          <mxGeometry relative="1" as="geometry" />
        </mxCell>
        <mxCell id="t2IdmBUL7NWsffpxNlj8-38" value="log success" style="whiteSpace=wrap;html=1;fillColor=none;sketch=0;fillStyle=solid;pointerEvents=1;resizable=0;" vertex="1" parent="1">
          <mxGeometry x="331" y="860" width="120" height="60" as="geometry" />
        </mxCell>
        <mxCell id="t2IdmBUL7NWsffpxNlj8-43" value="" style="edgeStyle=orthogonalEdgeStyle;rounded=0;orthogonalLoop=1;jettySize=auto;html=1;" edge="1" parent="1" source="t2IdmBUL7NWsffpxNlj8-40" target="t2IdmBUL7NWsffpxNlj8-42">
          <mxGeometry relative="1" as="geometry" />
        </mxCell>
        <mxCell id="t2IdmBUL7NWsffpxNlj8-40" value="play success sound" style="whiteSpace=wrap;html=1;fillColor=none;sketch=0;fillStyle=solid;pointerEvents=1;resizable=0;" vertex="1" parent="1">
          <mxGeometry x="331" y="940" width="120" height="60" as="geometry" />
        </mxCell>
        <mxCell id="t2IdmBUL7NWsffpxNlj8-44" style="edgeStyle=orthogonalEdgeStyle;rounded=0;orthogonalLoop=1;jettySize=auto;html=1;" edge="1" parent="1" source="t2IdmBUL7NWsffpxNlj8-42" target="t2IdmBUL7NWsffpxNlj8-2">
          <mxGeometry relative="1" as="geometry">
            <Array as="points">
              <mxPoint x="507" y="1050" />
              <mxPoint x="507" y="585" />
              <mxPoint x="617" y="585" />
              <mxPoint x="617" y="120" />
            </Array>
          </mxGeometry>
        </mxCell>
        <mxCell id="t2IdmBUL7NWsffpxNlj8-42" value="show success message" style="whiteSpace=wrap;html=1;fillColor=none;sketch=0;fillStyle=solid;pointerEvents=1;resizable=0;" vertex="1" parent="1">
          <mxGeometry x="331" y="1020" width="120" height="60" as="geometry" />
        </mxCell>
        <mxCell id="t2IdmBUL7NWsffpxNlj8-48" value="yes" style="text;html=1;align=center;verticalAlign=middle;whiteSpace=wrap;rounded=0;" vertex="1" parent="1">
          <mxGeometry x="167" y="510" width="60" height="30" as="geometry" />
        </mxCell>
        <mxCell id="t2IdmBUL7NWsffpxNlj8-51" value="no" style="text;html=1;align=center;verticalAlign=middle;whiteSpace=wrap;rounded=0;" vertex="1" parent="1">
          <mxGeometry x="47" y="442.5" width="40" height="15" as="geometry" />
        </mxCell>
        <mxCell id="t2IdmBUL7NWsffpxNlj8-55" value="" style="edgeStyle=orthogonalEdgeStyle;rounded=0;orthogonalLoop=1;jettySize=auto;html=1;" edge="1" parent="1" source="t2IdmBUL7NWsffpxNlj8-52" target="t2IdmBUL7NWsffpxNlj8-54">
          <mxGeometry relative="1" as="geometry" />
        </mxCell>
        <mxCell id="t2IdmBUL7NWsffpxNlj8-52" value="show error" style="whiteSpace=wrap;html=1;fillColor=none;sketch=0;fillStyle=solid;pointerEvents=1;resizable=0;" vertex="1" parent="1">
          <mxGeometry x="177" y="930" width="120" height="60" as="geometry" />
        </mxCell>
        <mxCell id="t2IdmBUL7NWsffpxNlj8-58" style="edgeStyle=orthogonalEdgeStyle;rounded=0;orthogonalLoop=1;jettySize=auto;html=1;" edge="1" parent="1" source="t2IdmBUL7NWsffpxNlj8-54" target="t2IdmBUL7NWsffpxNlj8-2">
          <mxGeometry relative="1" as="geometry">
            <Array as="points">
              <mxPoint x="37" y="1040" />
              <mxPoint x="37" y="110" />
            </Array>
          </mxGeometry>
        </mxCell>
        <mxCell id="t2IdmBUL7NWsffpxNlj8-54" value="play error sound" style="whiteSpace=wrap;html=1;fillColor=none;sketch=0;fillStyle=solid;pointerEvents=1;resizable=0;" vertex="1" parent="1">
          <mxGeometry x="177" y="1010" width="120" height="60" as="geometry" />
        </mxCell>
        <mxCell id="t2IdmBUL7NWsffpxNlj8-59" value="success" style="text;html=1;align=center;verticalAlign=middle;whiteSpace=wrap;rounded=0;" vertex="1" parent="1">
          <mxGeometry x="331" y="830" width="40" height="30" as="geometry" />
        </mxCell>
        <mxCell id="t2IdmBUL7NWsffpxNlj8-60" value="failure" style="text;html=1;align=center;verticalAlign=middle;whiteSpace=wrap;rounded=0;" vertex="1" parent="1">
          <mxGeometry x="127" y="910" width="40" height="30" as="geometry" />
        </mxCell>
        <mxCell id="t2IdmBUL7NWsffpxNlj8-61" value="Select Encrypt" style="text;html=1;align=center;verticalAlign=middle;whiteSpace=wrap;rounded=0;" vertex="1" parent="1">
          <mxGeometry x="117" y="240" width="60" height="30" as="geometry" />
        </mxCell>
        <mxCell id="t2IdmBUL7NWsffpxNlj8-62" value="Select Decrypt" style="text;html=1;align=center;verticalAlign=middle;whiteSpace=wrap;rounded=0;" vertex="1" parent="1">
          <mxGeometry x="200" y="240" width="60" height="30" as="geometry" />
        </mxCell>
        <mxCell id="t2IdmBUL7NWsffpxNlj8-63" value="select exit" style="text;html=1;align=center;verticalAlign=middle;whiteSpace=wrap;rounded=0;" vertex="1" parent="1">
          <mxGeometry x="427" y="230" width="60" height="30" as="geometry" />
        </mxCell>
        <mxCell id="t2IdmBUL7NWsffpxNlj8-65" value="select history" style="text;html=1;align=center;verticalAlign=middle;whiteSpace=wrap;rounded=0;" vertex="1" parent="1">
          <mxGeometry x="281" y="230" width="30" height="40" as="geometry" />
        </mxCell>
      </root>
    </mxGraphModel>
  </diagram>
</mxfile>
